<svg xmlns="http://www.w3.org/2000/svg"  viewBox="0 0 100 100" width="100px" height="100px"><circle cx="52" cy="52" r="44" opacity=".35"/><circle cx="50" cy="50" r="44" fill="#f2f2f2"/><path fill="#f2f2f2" d="M50,91C27.393,91,9,72.607,9,50S27.393,9,50,9s41,18.393,41,41S72.607,91,50,91z"/><circle cx="50.026" cy="50.026" r="38.026" fill="#2785bd"/><g><path fill="#40396e" d="M50,89c-21.505,0-39-17.495-39-39s17.495-39,39-39s39,17.495,39,39S71.505,89,50,89z M50,14 c-19.851,0-36,16.149-36,36s16.149,36,36,36s36-16.149,36-36S69.851,14,50,14z"/></g><g><polygon fill="#f2f2f2" points="50,26 63.757,40.423 56,40.423 56,73.423 44,73.423 44,40.423 36.243,40.423"/></g></svg>