<svg xmlns="http://www.w3.org/2000/svg"  viewBox="0 0 36 36" width="36px" height="36px"><path fill="#EFEFEF" d="M8.114,5.564C6.309,12.241,1.61,15.891,0.74,19.109s-0.847,10.475,13.955,14.477s19.432-4.501,20.388-8.041	C39.564,8.973,11.311-6.262,8.114,5.564z"/><path fill="#A4AFC1" d="M31,6.5c-0.827,0-1.5-0.673-1.5-1.5s0.673-1.5,1.5-1.5s1.5,0.673,1.5,1.5S31.827,6.5,31,6.5z M31,4.5 c-0.275,0-0.5,0.224-0.5,0.5s0.225,0.5,0.5,0.5s0.5-0.224,0.5-0.5S31.275,4.5,31,4.5z"/><rect width="1" height="2" x="3.5" fill="#A4AFC1"/><rect width="1" height="2" x="3.5" y="5.75" fill="#A4AFC1"/><rect width="2" height="1" y="3.25" fill="#A4AFC1"/><rect width="2" height="1" x="5.75" y="3.25" fill="#A4AFC1"/><path fill="#F3F3F1" d="M27.375,6.75H8.625C7.59,6.75,6.75,7.589,6.75,8.625v18.75c0,1.036,0.84,1.875,1.875,1.875h18.75	c1.035,0,1.875-0.839,1.875-1.875V8.625C29.25,7.589,28.41,6.75,27.375,6.75z"/><path fill="#2FDF84" d="M23.485,22.473v0.002c-0.199,0.465-0.515,0.875-0.919,1.19c-0.418,0.328-0.948,0.598-1.6,0.791	c-0.651,0.196-1.425,0.294-2.322,0.294h-6.402v-13.5h6.771c1.252,0,2.255,0.273,3.006,0.829c0.756,0.559,1.133,1.392,1.133,2.517	c0,0.68-0.171,1.263-0.516,1.745c-0.342,0.479-0.836,0.854-1.473,1.115V17.5c0.85,0.174,1.508,0.564,1.941,1.172	c0.433,0.607,0.655,1.375,0.655,2.302c0,0.519-0.104,1.012-0.299,1.473L23.485,22.473z"/><path fill="#F3F3F1" d="M20.639,19.22c-0.399-0.296-0.96-0.44-1.685-0.44h-4.209v3.447h4.221c0.721,0,1.285-0.151,1.685-0.458	c0.399-0.304,0.604-0.737,0.604-1.294c-0.007-0.545-0.204-0.966-0.604-1.255H20.639z"/><path fill="#F3F3F1" d="M19.713,15.865h0.004c0.36-0.261,0.536-0.634,0.536-1.121c0-0.547-0.159-0.935-0.482-1.157	c-0.32-0.221-0.782-0.336-1.389-0.336h-3.637v3h3.637C18.912,16.25,19.364,16.118,19.713,15.865z"/><path fill="#D5DBE1" d="M9,27.375V8.625C9,7.589,9.84,6.75,10.875,6.75h-2.25C7.59,6.75,6.75,7.589,6.75,8.625v18.75	c0,1.036,0.84,1.875,1.875,1.875h2.25C9.84,29.25,9,28.411,9,27.375z"/><rect width="2.25" height="13.5" x="12.242" y="11.25" fill="#00B871"/><rect width="2.25" height="3.447" x="14.745" y="18.78" fill="#D5DBE1"/><rect width="2.25" height="3" x="14.745" y="13.25" fill="#D5DBE1"/><path d="M27.375,30H8.625C7.178,30,6,28.822,6,27.375V8.625C6,7.178,7.178,6,8.625,6h18.75C28.822,6,30,7.178,30,8.625v18.75 C30,28.822,28.822,30,27.375,30z M8.625,7.5C8.005,7.5,7.5,8.005,7.5,8.625v18.75c0,0.62,0.505,1.125,1.125,1.125h18.75 c0.62,0,1.125-0.505,1.125-1.125V8.625c0-0.62-0.505-1.125-1.125-1.125H8.625z"/><g><path d="M18.644,25.5h-6.402c-0.414,0-0.75-0.336-0.75-0.75v-13.5c0-0.414,0.336-0.75,0.75-0.75h6.771 c1.416,0,2.577,0.329,3.452,0.977c0.953,0.706,1.437,1.755,1.437,3.12c0,0.837-0.221,1.571-0.655,2.181 c-0.143,0.2-0.306,0.385-0.487,0.554c0.377,0.24,0.696,0.543,0.955,0.906c0.527,0.741,0.795,1.661,0.795,2.737 c0,0.542-0.095,1.071-0.282,1.576c-0.006,0.075-0.022,0.148-0.053,0.218c-0.248,0.582-0.645,1.097-1.147,1.489 c-0.504,0.396-1.126,0.706-1.848,0.919C20.464,25.391,19.61,25.5,18.644,25.5z M12.991,24h5.652c0.819,0,1.528-0.088,2.106-0.262 c0.542-0.16,0.996-0.383,1.353-0.663c0.256-0.2,0.466-0.451,0.615-0.733c0.009-0.063,0.025-0.126,0.052-0.188 c0.159-0.375,0.239-0.772,0.239-1.181c0-0.757-0.174-1.385-0.517-1.866c-0.315-0.443-0.813-0.736-1.479-0.872 c-0.35-0.071-0.601-0.378-0.601-0.735c0-0.305,0.185-0.624,0.467-0.739c0.501-0.205,0.887-0.493,1.146-0.856 c0.253-0.354,0.376-0.783,0.376-1.309c0-0.887-0.264-1.496-0.829-1.914C20.961,12.229,20.101,12,19.013,12h-6.021V24z"/></g><g><path d="M18.966,22.977h-4.221c-0.414,0-0.75-0.336-0.75-0.75V18.78c0-0.414,0.336-0.75,0.75-0.75h4.209 c0.852,0,1.521,0.172,2.044,0.525c0.032,0.017,0.063,0.036,0.094,0.058c0.588,0.426,0.903,1.066,0.913,1.853 c0,0.797-0.311,1.451-0.898,1.9C20.577,22.771,19.857,22.977,18.966,22.977z M15.495,21.477h3.471c0.554,0,0.967-0.102,1.229-0.303 c0.145-0.111,0.31-0.289,0.31-0.699c-0.004-0.338-0.122-0.505-0.241-0.606c-0.024-0.014-0.048-0.029-0.07-0.046 c-0.263-0.194-0.68-0.293-1.239-0.293h-3.459V21.477z"/></g><g><path d="M18.382,17h-3.637c-0.414,0-0.75-0.336-0.75-0.75v-3c0-0.414,0.336-0.75,0.75-0.75h3.637c0.755,0,1.366,0.158,1.816,0.47 c0.366,0.252,0.805,0.766,0.805,1.774c0,0.73-0.293,1.328-0.847,1.729c-0.019,0.013-0.037,0.026-0.056,0.037 C19.633,16.831,19.04,17,18.382,17z M15.495,15.5h2.887c0.37,0,0.669-0.082,0.89-0.242c0.013-0.009,0.025-0.018,0.038-0.026 c0.104-0.084,0.193-0.209,0.193-0.489c0-0.161-0.021-0.445-0.157-0.54C19.211,14.11,18.935,14,18.382,14h-2.887V15.5z"/></g></svg>