<svg xmlns="http://www.w3.org/2000/svg"  viewBox="0 0 256 256" width="64px" height="64px"><path fill="#fc5d3d" d="M170.006,58.616V5H37.392a5,5,0,0,0-5,5V246a5,5,0,0,0,5,5H218.605a5,5,0,0,0,5-5V58.616Z"/><path fill="#d95034" d="M223.609,58.62v8.33h-56.93a5,5,0,0,1-5-5V5h8.33Z"/><polygon fill="#ffcbc2" points="170.006 5 170.006 58.616 223.605 58.616 170.006 5"/><rect width="164.083" height="60.33" x="45.957" y="176.328" fill="#fff" rx="10" ry="10"/><path fill="#fff" d="M89.679,136.385l-20.7-20.712a7.716,7.716,0,0,1,0-10.938l20.7-20.712a7.742,7.742,0,0,1,10.95,10.949L85.4,110.2l15.232,15.232a7.742,7.742,0,1,1-10.95,10.949Z"/><path fill="#fff" d="M155.385,136.385a7.73,7.73,0,0,1,0-10.949L170.617,110.2,155.385,94.972a7.742,7.742,0,0,1,10.949-10.949l20.7,20.7a7.772,7.772,0,0,1,0,10.949l-20.7,20.712A7.756,7.756,0,0,1,155.385,136.385Z"/><path fill="#fff" d="M120.176,138.366a7.751,7.751,0,0,1-5.387-9.535l11.517-41.4a7.738,7.738,0,1,1,14.912,4.138l-11.507,41.412A7.756,7.756,0,0,1,120.176,138.366Z"/><path fill="#ffcbc2" d="M45.958,166.167a2.5,2.5,0,0,1-2.5-2.5v-4.156a2.5,2.5,0,0,1,5,0v4.156A2.5,2.5,0,0,1,45.958,166.167Zm0-14.156a2.5,2.5,0,0,1-2.5-2.5V17.667a2.5,2.5,0,0,1,2.5-2.5H153.113a2.5,2.5,0,0,1,0,5H48.458V149.511A2.5,2.5,0,0,1,45.958,152.011Z"/><path fill="#ffcbc2" d="M210.04,166.167a2.5,2.5,0,0,1-2.5-2.5V155a2.5,2.5,0,0,1,5,0v8.667A2.5,2.5,0,0,1,210.04,166.167Zm0-18.667a2.5,2.5,0,0,1-2.5-2.5V74a2.5,2.5,0,1,1,5,0v71A2.5,2.5,0,0,1,210.04,147.5Z"/><path d="M223.6,220.52a2.5,2.5,0,1,0,2.5,2.49A2.5,2.5,0,0,0,223.6,220.52Z"/><path d="M223.6,230.52a2.5,2.5,0,0,0-2.49,2.49V246a2.514,2.514,0,0,1-2.5,2.5H37.39a2.5,2.5,0,0,1-2.5-2.5V65.91a2.5,2.5,0,0,0-5,0V246a7.522,7.522,0,0,0,7.5,7.5H218.61a7.506,7.506,0,0,0,7.49-7.5V233.01A2.5,2.5,0,0,0,223.6,230.52Z"/><circle cx="32.39" cy="55.91" r="2.5"/><path d="M32.39,48.41a2.5,2.5,0,0,0,2.5-2.5V10a2.5,2.5,0,0,1,2.5-2.5H167.5l.01,51.11v.01a2.524,2.524,0,0,0,2.5,2.5H221.1l.01,151.89a2.5,2.5,0,1,0,5,0,.01.01,0,0,0-.01-.01V58.61a2.61,2.61,0,0,0-.729-1.76L171.77,3.23a2.624,2.624,0,0,0-1.76-.73H37.39a7.522,7.522,0,0,0-7.5,7.5V45.91A2.5,2.5,0,0,0,32.39,48.41ZM172.5,56.12V11.04l45.07,45.08Z"/><path d="M63.314,223.979a2.5,2.5,0,0,0,2.5-2.5V208.993H79.122v12.486a2.5,2.5,0,0,0,5,0V191.506a2.5,2.5,0,0,0-5,0v12.487H65.814V191.506a2.5,2.5,0,1,0-5,0v29.973A2.5,2.5,0,0,0,63.314,223.979Z"/><path d="M98.3,194.486h5.964V221a2.5,2.5,0,0,0,5,0V194.486h7.344a2.5,2.5,0,1,0,0-5H98.3a2.5,2.5,0,0,0,0,5Z"/><path d="M132.963,223.5a2.5,2.5,0,0,0,2.5-2.5V198.5l8.037,8.923a2.578,2.578,0,0,0,3.714,0l8.036-8.923V221a2.5,2.5,0,1,0,5,0V191.986a2.5,2.5,0,0,0-4.357-1.673l-10.536,11.7-10.536-11.7a2.5,2.5,0,0,0-4.358,1.673V221A2.5,2.5,0,0,0,132.963,223.5Z"/><path d="M175.067,223.979h17.617a2.5,2.5,0,0,0,0-5H177.567V191.506a2.5,2.5,0,1,0-5,0v29.973A2.5,2.5,0,0,0,175.067,223.979Z"/><path d="M102.4,82.255a10.254,10.254,0,0,0-14.485,0l-20.693,20.7a10.213,10.213,0,0,0-.008,14.48l20.7,20.712.007.008A10.242,10.242,0,0,0,102.4,123.668L88.932,110.2,102.4,96.74A10.223,10.223,0,0,0,102.4,82.255ZM98.861,93.2,83.629,108.437a2.5,2.5,0,0,0,0,3.535L98.861,127.2a5.243,5.243,0,1,1-7.419,7.41L70.741,113.9a5.213,5.213,0,0,1,.007-7.4l20.7-20.711A5.242,5.242,0,0,1,98.861,93.2Z"/><path d="M153.618,138.153l.007.007a10.3,10.3,0,0,0,14.477-.007l20.7-20.712a10.277,10.277,0,0,0,0-14.484l-20.7-20.7a10.241,10.241,0,0,0-14.483,14.484L167.082,110.2l-13.465,13.464A10.256,10.256,0,0,0,153.618,138.153Zm3.535-10.95,15.231-15.231a2.5,2.5,0,0,0,0-3.535l-15.228-15.23a5.242,5.242,0,1,1,7.41-7.416l20.695,20.694a5.267,5.267,0,0,1,.006,7.421l-20.695,20.7a5.242,5.242,0,1,1-7.419-7.408Z"/><path d="M119.517,140.778a10.282,10.282,0,0,0,12.6-7.129l11.5-41.409A10.237,10.237,0,1,0,123.9,86.759L112.377,128.17a10.288,10.288,0,0,0,7.126,12.6ZM117.2,129.5l11.518-41.4a5.237,5.237,0,1,1,10.094,2.8L127.3,132.311A5.244,5.244,0,0,1,117.2,129.5Z"/><path d="M43.458,186.328v40.33a12.514,12.514,0,0,0,12.5,12.5H200.04a12.515,12.515,0,0,0,12.5-12.5v-40.33a12.514,12.514,0,0,0-12.5-12.5H55.958A12.514,12.514,0,0,0,43.458,186.328Zm164.082,0v40.33a7.509,7.509,0,0,1-7.5,7.5H55.958a7.509,7.509,0,0,1-7.5-7.5v-40.33a7.508,7.508,0,0,1,7.5-7.5H200.04A7.509,7.509,0,0,1,207.54,186.328Z"/></svg>