<svg xmlns="http://www.w3.org/2000/svg"  viewBox="0 0 256 256" width="64px" height="64px"><path fill="#72c1e8" d="M223.61,58.62V246a5,5,0,0,1-5,5H37.39a5,5,0,0,1-5-5V10a5,5,0,0,1,5-5H170.01V58.62Z"/><path fill="#fff" d="M88.45,90.23a.525.525,0,0,1,.53-.52h5.55a7.5,7.5,0,0,0,0-15H88.98A15.556,15.556,0,0,0,73.45,90.23V102.7H72.06a7.5,7.5,0,0,0,0,15h1.39v12.47a15.563,15.563,0,0,0,15.53,15.52h5.55a7.5,7.5,0,0,0,0-15H88.98a.532.532,0,0,1-.53-.52Z"/><path fill="#fff" d="M183.94,102.7h-1.39V90.23a15.556,15.556,0,0,0-15.53-15.52h-5.55a7.5,7.5,0,0,0,0,15h5.55a.525.525,0,0,1,.53.52v39.94a.532.532,0,0,1-.53.52h-5.55a7.5,7.5,0,1,0,0,15h5.55a15.563,15.563,0,0,0,15.53-15.52V117.7h1.39a7.5,7.5,0,0,0,0-15Z"/><path fill="#fff" d="M138.3,74.04a7.51,7.51,0,0,0-9.27,5.16l-16.49,57.89a7.5,7.5,0,1,0,14.43,4.11l16.49-57.9A7.5,7.5,0,0,0,138.3,74.04Z"/><polygon fill="#c5e5ff" points="170.007 5 170.007 58.616 223.606 58.616 170.007 5"/><rect width="164.083" height="60.33" x="45.959" y="176.328" fill="#fff" rx="10" ry="10"/><path fill="#c5e5ff" d="M45.958,166.167a2.5,2.5,0,0,1-2.5-2.5v-4.156a2.5,2.5,0,0,1,5,0v4.156A2.5,2.5,0,0,1,45.958,166.167Zm0-14.156a2.5,2.5,0,0,1-2.5-2.5V17.667a2.5,2.5,0,0,1,2.5-2.5H153.114a2.5,2.5,0,0,1,0,5H48.458V149.511A2.5,2.5,0,0,1,45.958,152.011Z"/><path fill="#c5e5ff" d="M210.042,166.167a2.5,2.5,0,0,1-2.5-2.5V159a2.5,2.5,0,0,1,5,0v4.667A2.5,2.5,0,0,1,210.042,166.167Zm0-14.667a2.5,2.5,0,0,1-2.5-2.5V74a2.5,2.5,0,0,1,5,0v75A2.5,2.5,0,0,1,210.042,151.5Z"/><path d="M94.53,92.21a10,10,0,0,0,0-20H88.98A18.059,18.059,0,0,0,70.95,90.23v10.031a10,10,0,0,0,0,19.878v10.034A18.073,18.073,0,0,0,88.98,148.19h5.55a10,10,0,0,0,0-20H90.95V92.21Zm-5.55,40.98h5.55a5,5,0,0,1,0,10H88.983A13.064,13.064,0,0,1,75.95,130.17V117.7a2.5,2.5,0,0,0-2.5-2.5H72.06a5,5,0,0,1,0-10h1.39a2.5,2.5,0,0,0,2.5-2.5V90.233A13.052,13.052,0,0,1,88.98,77.21h5.55a5,5,0,0,1,0,10H88.98a3.028,3.028,0,0,0-3.03,3.02v39.94A3.028,3.028,0,0,0,88.98,133.19Z"/><path d="M161.47,128.19a10,10,0,1,0,.01,20h5.543a18.073,18.073,0,0,0,18.027-18.02V120.139a10,10,0,0,0,0-19.878V90.227A18.058,18.058,0,0,0,167.02,72.21h-5.55a10,10,0,0,0,0,20h3.58v35.98Zm5.55-40.98h-5.55a5,5,0,0,1,0-10h5.55a13.051,13.051,0,0,1,13.03,13.02V102.7a2.5,2.5,0,0,0,2.5,2.5h1.39a5,5,0,0,1,0,10h-1.39a2.5,2.5,0,0,0-2.5,2.5v12.467a13.064,13.064,0,0,1-13.03,13.023h-5.55a5,5,0,1,1,0-10h5.55a3.029,3.029,0,0,0,3.03-3.02V90.23A3.029,3.029,0,0,0,167.02,87.21Z"/><path d="M117.018,148.765a10.03,10.03,0,0,0,12.356-6.881l16.49-57.9a10,10,0,0,0-19.239-5.469L110.136,136.4A10,10,0,0,0,117.018,148.765Zm-2.074-10.99,16.491-57.893a5.007,5.007,0,0,1,6.181-3.437h0a5,5,0,0,1,3.439,6.17l-16.49,57.9a5,5,0,1,1-9.622-2.736Z"/><path d="M130.73,218H118.268a2.5,2.5,0,0,0,0,5H130.73a9.5,9.5,0,1,0,0-19h-5.46a4.5,4.5,0,0,1,0-9h12.462a2.5,2.5,0,0,0,0-5H125.27a9.5,9.5,0,0,0,0,19h5.46a4.5,4.5,0,1,1,0,9Z"/><path d="M164.034,218H151.571a2.5,2.5,0,0,0,0,5h12.463a9.5,9.5,0,1,0,0-19h-5.461a4.5,4.5,0,0,1,0-9h12.463a2.5,2.5,0,0,0,0-5H158.573a9.5,9.5,0,0,0,0,19h5.461a4.5,4.5,0,1,1,0,9Z"/><path d="M94.7,223h9.733a2.5,2.5,0,0,0,0-5H94.7a7.24,7.24,0,0,1-7.232-7.232v-8.543a7.24,7.24,0,0,1,7.232-7.232h9.733a2.5,2.5,0,0,0,0-5H94.7a12.247,12.247,0,0,0-12.232,12.232v8.543A12.246,12.246,0,0,0,94.7,223Z"/><path d="M223.61,230.51a2.507,2.507,0,0,0-2.5,2.5V246a2.514,2.514,0,0,1-2.5,2.5H37.39a2.514,2.514,0,0,1-2.5-2.5V65.91a2.5,2.5,0,0,0-5,0V246a7.516,7.516,0,0,0,7.5,7.5H218.61a7.522,7.522,0,0,0,7.5-7.5V233.01A2.514,2.514,0,0,0,223.61,230.51Z"/><circle cx="32.39" cy="55.91" r="2.5"/><path d="M225.37,56.85,171.78,3.23a2.68,2.68,0,0,0-1.77-.73H37.39a7.516,7.516,0,0,0-7.5,7.5V45.91a2.5,2.5,0,0,0,5,0V10a2.514,2.514,0,0,1,2.5-2.5H167.51V58.62a2.488,2.488,0,0,0,2.5,2.49h51.1v151.9a2.5,2.5,0,0,0,5,0V58.62A2.629,2.629,0,0,0,225.37,56.85Zm-52.86-.73V11.04l45.06,45.08Z"/><circle cx="223.61" cy="223.01" r="2.5"/><path d="M43.459,186.328v40.33a12.514,12.514,0,0,0,12.5,12.5H200.041a12.514,12.514,0,0,0,12.5-12.5v-40.33a12.514,12.514,0,0,0-12.5-12.5H55.959A12.514,12.514,0,0,0,43.459,186.328Zm164.082,0v40.33a7.509,7.509,0,0,1-7.5,7.5H55.959a7.509,7.509,0,0,1-7.5-7.5v-40.33a7.508,7.508,0,0,1,7.5-7.5H200.041A7.508,7.508,0,0,1,207.541,186.328Z"/></svg>